<svg width="1882" height="1050" viewBox="0 0 1922 1097" fill="none" xmlns="http://www.w3.org/2000/svg">
<path d="M1033.56 1094.67L1032.63 8.16587C1127.26 475.768 1362.51 667.276 1920.07 780.531L1921 1095.46M1075.54 1094.67L1075.54 808.087C1109.94 837.373 1130.34 849.124 1168.44 863.199V1094.67M1270.89 1094.67L1270.89 900.204C1317.14 914.453 1343.17 920.514 1389.84 926.973V1095.46M1490.3 1095.46L1490.3 721.481C1533.97 739.191 1566.95 749.517 1594.49 758.485V1095.46M1724.72 1095.46L1724.72 967.913C1770.36 973.574 1796.34 976.275 1843.79 979.723V1095.46M161.928 1096.25V319.946L279.137 356.163L279.137 363.249L338.672 361.674L870.765 536.46L870.765 1.00013L1024.26 1L1024.26 1094.67M1 1095.46L1.18351 335.562L156.349 319.158L156.349 1096.25M1074.49 353.014C1108.04 416.478 1128.4 448.136 1169.37 492.896V771.87C1131.42 751.718 1110.64 736.145 1074.49 700.584V353.014ZM1269.84 595.509C1319.61 632.462 1346.44 649.657 1390.77 668.731V861.625C1338.3 853.417 1316.77 846.289 1269.84 823.833V595.509ZM1723.79 793.915C1769.44 804.712 1795.7 809.725 1844.72 815.173V941.932C1791.27 938.032 1764.3 934.765 1723.79 926.185V793.915ZM769.372 680.54C801.365 688.434 823.93 693.623 871.698 704.16V902.566C826.722 897.926 804.132 895.502 769.372 891.543V680.54ZM443.791 937.208L743.325 955.316V1058.46L443.791 1055.31V937.208ZM769.372 957.678L871.698 964.764V1060.03L769.372 1058.46V957.678ZM443.791 601.808L743.325 673.455V888.394L443.791 856.114V601.808ZM278.209 926.185L406.581 934.059V1055.31L278.209 1053.73V926.185ZM278.209 578.188V838.005L406.581 852.177V591.573L334.953 575.039L278.209 578.188Z" stroke="white"/>
</svg>
